<svg width="3364" height="6774" viewBox="0 0 3364 6774" fill="none" xmlns="http://www.w3.org/2000/svg">
<path d="M3299.31 6229.06H3300.34C3300.34 6072.64 3299.31 5916.42 3300.97 5760C3301.59 5712.77 3288.33 5678.58 3247.72 5650.82C2782.15 5329.9 2317 5008.77 1853.31 4685.16C1803.58 4650.35 1768.56 4648.07 1717.39 4683.5C1250.37 5006.91 781.909 5328.03 312.616 5648.13C264.133 5681.07 258.953 5723.95 258.953 5773.68C258.539 5986.66 257.71 6199.43 257.295 6412.41C257.088 6509.37 255.431 6606.54 257.917 6703.5C259.989 6777.67 279.465 6786.99 338.93 6745.56C398.601 6704.12 456.823 6660.61 515.873 6618.14C915.756 6330.37 1316.05 6043.43 1714.69 5754C1763.8 5718.36 1797.57 5716.91 1848.13 5753.79C2297.94 6083 2749.83 6409.1 3201.1 6736.23C3224.51 6753.22 3247.92 6783.06 3278.17 6770.21C3311.33 6756.12 3298.48 6718.21 3298.69 6690.03C3299.52 6536.51 3299.1 6382.78 3299.1 6229.06H3299.31Z" fill="black"/>
<path d="M3306.77 4398.83C3304.49 4320.93 3301.79 4262.1 3229.69 4212.99C2815.93 3931.23 2404.65 3645.74 1992.95 3361.07C1926.86 3315.29 1867.6 3239.25 1790.53 3235.11C1712 3230.96 1653.36 3310.93 1587.68 3356.51C1585.41 3357.96 1583.33 3359.83 1581.26 3361.28C1163.77 3647.19 746.272 3933.3 328.57 4218.8C287.753 4246.76 264.962 4279.91 265.583 4332.12C267.655 4488.34 266.412 4644.55 266.412 4800.76C265.169 4800.76 263.926 4800.76 262.89 4800.76C262.89 4943.51 262.475 5086.26 263.097 5229C263.097 5268.57 245.071 5321.61 280.294 5342.95C318.832 5366.16 351.776 5318.5 382.648 5296.34C828.528 4975.62 1273.58 4654.08 1717.8 4331.29C1765.87 4296.28 1801.92 4293.38 1852.68 4330.67C2301.88 4660.29 2752.94 4987.43 3204 5314.57C3227 5331.14 3250 5363.67 3280.25 5350.62C3316.92 5334.66 3302.62 5293.23 3301.59 5263.19C3292.89 4975 3315.26 4687.02 3306.56 4398.83H3306.77Z" fill="black"/>
<path d="M1781.41 3163.42C2653.69 3163.42 3363.33 2453.83 3363.33 1581.61C3363.33 709.382 2653.49 0 1781.41 0C1291.4 0 837.023 221.682 534.727 608.072L1177.03 1110.27C1323.51 922.777 1543.76 815.458 1781.41 815.458C2204.08 815.458 2547.82 1159.17 2547.82 1581.82C2547.82 2004.46 2204.08 2348.17 1781.41 2348.17C1455.91 2348.17 1177.44 2144.1 1066.39 1857.36C1145.12 1914.55 1224.06 1971.93 1302.79 2029.12C1312.95 2036.37 1323.1 2050.87 1336.57 2045.07C1352.73 2038.02 1346.51 2019.79 1346.1 2006.53C1342.16 1879.12 1352.11 1751.7 1348.38 1624.29C1347.34 1589.9 1346.1 1563.79 1314.19 1542.04C1131.24 1417.52 949.321 1291.14 767.406 1165.38C738.191 1145.08 711.878 1111.52 677.898 1109.65C643.09 1107.79 617.19 1143.22 588.183 1163.31C587.147 1163.93 586.319 1164.76 585.283 1165.38C400.673 1291.76 216.064 1418.35 31.2475 1544.52C13.2217 1556.95 3.06921 1571.46 3.4836 1594.66C4.31237 1663.65 3.89797 1732.85 3.89797 1801.84C3.27639 1801.84 2.86201 1801.84 2.24043 1801.84C2.24043 1865.03 2.24043 1928.01 2.24043 1991.2C2.24043 2008.6 -5.84012 2032.22 9.90658 2041.55C26.8964 2051.91 41.4 2030.77 55.0748 2020.83C113.71 1978.77 171.932 1936.3 230.568 1894.03C376.017 2617.09 1016.04 3163.22 1781.2 3163.22L1781.41 3163.42Z" fill="black"/>
</svg>
