<svg width="4170" height="707" viewBox="0 0 4170 707" fill="none" xmlns="http://www.w3.org/2000/svg">
<path d="M0.0258789 688.196V15.8994H303.979C392.45 15.8994 459.788 35.3742 505.992 74.1168C552.611 113.274 575.816 169.419 575.816 242.139C575.816 289.997 564.213 329.155 541.008 359.61C517.181 391.516 485.48 409.747 445.906 414.305L625.543 687.99H354.534L237.055 466.1V687.99H0.0258789V688.196ZM236.848 189.101V320.453H274.557C298.177 320.453 315.996 314.859 328.22 303.465C340.237 292.691 346.246 276.738 346.246 255.606C346.246 234.473 340.237 217.485 328.22 205.469C315.996 194.488 297.97 188.894 274.557 188.894H236.848V189.101Z" fill="black"/>
<path d="M673.197 688.196V15.8994H1122.81V198.217H910.226V263.064H1103.12V435.23H910.226V505.879H1128.4V688.196H673.197Z" fill="black"/>
<path d="M1165.07 630.808L1242.15 442.482C1278.62 467.343 1309.7 484.953 1335.39 495.312C1362.12 506.707 1387.19 512.301 1410.6 512.301C1427.8 512.301 1440.85 509.193 1450.17 503.185C1459.29 496.348 1464.05 487.854 1464.05 477.495C1464.05 459.056 1440.23 444.76 1392.78 434.401C1382.63 432.537 1370.82 430.051 1356.94 427.15C1306.79 414.512 1268.05 392.966 1241.32 361.889C1215.01 331.019 1201.75 292.069 1201.75 245.247C1201.75 173.977 1227.85 114.931 1279.86 68.5225C1331.66 23.5646 1399.2 0.982422 1482.91 0.982422C1522.69 0.982422 1560.61 5.95432 1596.87 16.1061C1635.2 26.2579 1672.7 41.5892 1709.79 62.1L1636.23 237.996C1611.78 220.178 1588.58 207.126 1566.82 198.424C1541.13 189.516 1518.13 185.165 1498.03 185.165C1481.25 185.165 1467.99 188.065 1458.46 193.866C1449.55 199.667 1445.2 207.54 1445.2 217.278C1445.2 236.546 1478.97 253.12 1546.31 266.793C1555.22 269.487 1563.3 271.559 1570.55 272.802C1616.76 282.954 1653.01 304.293 1679.33 336.613C1706.26 368.104 1719.73 407.054 1719.73 453.255C1719.73 528.047 1692.8 588.751 1638.93 635.573C1611.99 659.399 1580.91 677.216 1545.69 688.818C1510.47 700.42 1471.72 706.221 1429.45 706.221C1387.19 706.221 1342.43 700.006 1297.68 687.368C1252.92 674.73 1208.79 656.084 1164.87 630.808H1165.07Z" fill="black"/>
<path d="M1887.56 688.196V235.924H1753.09V15.8994H2263.82V235.924H2129.14V688.196H1887.56Z" fill="black"/>
<path d="M2252.63 688.196L2492.36 15.8994H2761.5L2996.66 688.196H2736.64L2715.09 603.667H2532.76L2512.04 688.196H2252.63ZM2573.16 443.932H2673.65L2652.93 367.69C2642.57 328.118 2635.73 298.285 2632.21 278.189C2628.9 260.164 2626.62 240.689 2625.79 219.971H2620.82C2619.99 240.689 2617.71 260.164 2614.39 278.189C2610.04 303.05 2603.2 332.884 2593.67 367.69L2572.95 443.932H2573.16Z" fill="black"/>
<path d="M3033.75 688.196V15.8994H3337.7C3426.18 15.8994 3493.51 35.3742 3539.72 74.1168C3586.34 113.274 3609.54 169.419 3609.54 242.139C3609.54 289.997 3597.94 329.155 3574.73 359.61C3550.91 391.516 3519.21 409.747 3479.63 414.305L3659.27 687.99H3388.26L3270.78 466.1V687.99H3033.75V688.196ZM3270.78 189.101V320.453H3308.49C3332.11 320.453 3349.93 314.859 3362.15 303.465C3374.17 292.691 3380.18 276.738 3380.18 255.606C3380.18 234.473 3374.17 217.485 3362.15 205.469C3349.93 194.488 3331.9 188.894 3308.49 188.894H3270.78V189.101Z" fill="black"/>
<path d="M3793.94 688.196V235.924H3659.48V15.8994H4170.21V235.924H4035.53V688.196H3793.94Z" fill="black"/>
</svg>
